<?xml version="1.0" encoding="UTF-8"?>
<svg version="1.1" xmlns="http://www.w3.org/2000/svg" width="1563" height="1563">
<path d="M0 0 C35.68628524 -0.04536634 71.37256197 -0.08110167 107.05887021 -0.10213066 C111.28753787 -0.10463159 115.51620547 -0.10722028 119.74487305 -0.10986328 C120.58660064 -0.1103879 121.42832823 -0.11091252 122.29556272 -0.11145304 C135.86215254 -0.12011714 149.42872513 -0.13586469 162.99530479 -0.15430559 C176.95222691 -0.17311656 190.90914011 -0.18414018 204.86607438 -0.18817699 C213.4539134 -0.19089904 222.04170368 -0.19944384 230.62952767 -0.21583293 C236.54658391 -0.22653865 242.46361557 -0.22957053 248.38068076 -0.22700275 C251.77664704 -0.22574216 255.17246245 -0.22859692 258.56842422 -0.23841095 C282.43165861 -0.30389881 306.33453953 0.48269252 329.9375 4.25 C330.61725891 4.35604553 331.29701782 4.46209106 331.99737549 4.5713501 C344.2642644 6.49799557 356.18126368 9.16586779 368 13 C368.78906738 13.24943359 369.57813477 13.49886719 370.39111328 13.75585938 C395.3261089 21.77380796 417.20442251 34.89240119 436 53 C436.70511719 53.64195312 437.41023438 54.28390625 438.13671875 54.9453125 C466.39073769 81.42270956 477.77178447 122.50579463 479.21875 160.00390625 C479.7202914 180.03516595 477.05790782 199.89895731 471 219 C470.78504883 219.67933594 470.57009766 220.35867188 470.34863281 221.05859375 C454.34421976 270.14836294 414.09481234 304.59793045 369.5625 327.75 C368.39509277 328.35875977 367.22768555 328.96751953 366.02490234 329.59472656 C356.92972071 334.23890456 356.92972071 334.23890456 352 335 C355.39220595 342.42714567 359.58255777 349.27246481 363.9453125 356.15234375 C366.89897308 360.81565489 369.77585373 365.52427536 372.65332031 370.23486328 C379.07906028 380.74648542 385.64085218 391.14645812 392.41357422 401.43774414 C397.58921466 409.31855389 402.60176322 417.29410661 407.55102539 425.31884766 C412.11294354 432.685059 416.89080003 439.89109901 421.71762085 447.08477783 C423.77519629 450.15774895 425.81667004 453.24135229 427.859375 456.32421875 C440.53674414 475.43120312 453.51389252 494.27982637 466.98828125 512.8359375 C468.85739759 515.41252586 470.71172215 517.99792872 472.54296875 520.6015625 C482.09674219 534.17716326 492.3333362 547.28134368 503 560 C503.4345752 560.51949219 503.86915039 561.03898437 504.31689453 561.57421875 C529.53887631 591.64085351 554.50437714 612.50145905 592 625 C590.68 634.57 589.36 644.14 588 654 C528.36216144 652.71053322 470.70207495 646.16062409 426 603 C425.27425781 602.31421875 424.54851562 601.6284375 423.80078125 600.921875 C418.3741642 595.67650057 413.68739157 589.90489587 409 584 C408.13568119 582.92687023 407.27109011 581.8539597 406.40625 580.78125 C401.54123314 574.70741578 396.87171577 568.52161629 392.39453125 562.15625 C391.8787854 561.42397186 391.36303955 560.69169373 390.83166504 559.93722534 C385.09153549 551.75306817 379.53117823 543.45122621 374 535.125 C373.47575439 534.33708069 372.95150879 533.54916138 372.41137695 532.73736572 C364.77640502 521.25848221 357.231005 509.7387067 350 498 C348.77737092 496.02472277 347.55471254 494.04946366 346.33203125 492.07421875 C338.97349267 480.16462343 331.68899978 468.2110091 324.43264771 456.23901367 C317.93015705 445.51192164 311.37891842 434.815853 304.78515625 424.14453125 C302.33372907 420.17552425 299.90445629 416.19449213 297.49609375 412.19921875 C288.41639987 397.19384384 279.71235311 383.52198486 264.890625 373.5859375 C262.27372487 371.82331469 260.23079677 370.35581168 258.5 367.6875 C257.64716597 363.10351707 257.90020841 358.99256085 260.15820312 354.90161133 C261.69584709 352.7156897 263.31257835 350.63493765 265 348.5625 C265.59014893 347.81822754 266.18029785 347.07395508 266.78833008 346.30712891 C277.7110751 332.70982035 289.52654206 324.51023487 305.03222656 316.95996094 C315.28351588 311.95895975 324.21705564 306.209004 333 299 C333.57927246 298.53432617 334.15854492 298.06865234 334.75537109 297.58886719 C353.45601325 282.52006239 367.27545418 263.9121913 375 241 C375.22381348 240.33677734 375.44762695 239.67355469 375.67822266 238.99023438 C379.26129693 228.17205716 381.49569076 217.286537 383 206 C383.13277344 205.01257813 383.26554687 204.02515625 383.40234375 203.0078125 C387.73654119 162.04074083 381.06151828 116.94749743 355 84 C336.31242711 61.52760222 312.23169055 47.89967325 284 41 C282.80632812 40.70480469 281.61265625 40.40960937 280.3828125 40.10546875 C262.38478722 36.10809552 243.85079265 35.70119011 225.48925781 35.69702148 C223.4426796 35.68933118 221.39610447 35.68077949 219.34953308 35.67144775 C214.98849412 35.65336379 210.62749631 35.64120176 206.26642609 35.63390923 C199.33266257 35.62225588 192.39898874 35.59672527 185.465271 35.56959534 C174.46736623 35.52814856 163.46945677 35.49565531 152.4715116 35.46712118 C132.85039974 35.41609449 113.22932929 35.35304717 93.6082809 35.28178078 C86.75400731 35.25727854 79.89974379 35.23777853 73.04544425 35.22228032 C48.67460412 35.16423446 24.35786737 34.84747891 0 34 C0 22.78 0 11.56 0 0 Z " fill="#00413D" transform="translate(961,549)"/>
<path d="M0 0 C22.77 0 45.54 0 69 0 C69.33 49.5 69.66 99 70 150 C73.3 147.36 76.6 144.72 80 142 C103.30583432 128.01649941 131.97312632 123.42135365 158.58984375 129.9609375 C185.70958052 138.22422499 206.36584246 154.80054357 220.00488281 179.84521484 C224.75543224 188.90945414 227.82598945 197.982072 230 208 C230.22558594 208.98613281 230.45117188 209.97226562 230.68359375 210.98828125 C236.25596396 240.00303646 230.34887311 271.4220575 214 296 C199.21591234 316.51616376 178.20895343 332.15504648 152.88378906 336.35058594 C128.31372441 339.99339799 103.16212452 337.57335568 82.578125 322.53515625 C77.7633326 318.9258875 73.27000161 315.27000161 69 311 C68.67 317.93 68.34 324.86 68 332 C45.56 332 23.12 332 0 332 C0 222.44 0 112.88 0 0 Z M76.625 203.625 C67.9613487 215.37262594 66.66066712 227.88369799 68 242 C69.1748863 249.59824007 72.76996816 255.6719631 77 262 C77.86625 263.3303125 77.86625 263.3303125 78.75 264.6875 C88.3493771 274.55352647 100.21915857 278.87102951 113.80078125 279.15625 C126.48152726 278.96685263 137.12282053 274.66151879 146.2421875 265.828125 C154.97467914 256.55185183 158.76829852 245.79588567 159.375 233 C158.62320282 217.80062231 153.00216174 206.30138711 142 196 C121.35776656 180.35397593 93.42106811 184.50138687 76.625 203.625 Z " fill="#FEFFF2" transform="translate(467,617)"/>
<path d="M0 0 C22.77 0 45.54 0 69 0 C69.33 49.5 69.66 99 70 150 C73.63 147.03 77.26 144.06 81 141 C102.23443653 127.59371115 130.39121026 124.41912446 154.73291016 129.17822266 C158.20352688 129.97996202 161.60587058 130.92084993 165 132 C166.1859375 132.37382813 167.371875 132.74765625 168.59375 133.1328125 C179.33501915 136.92237241 189.65716426 143.19275371 198 151 C198 151.66 198 152.32 198 153 C198.56074219 153.21785156 199.12148437 153.43570313 199.69921875 153.66015625 C214.63549224 162.35818988 223.50778168 185.33149631 228.3125 201.0625 C236.26678546 231.30926787 232.5660746 263.81600277 217 291 C212.09034873 298.63054185 206.30175224 305.48642415 200 312 C198.89591797 313.14275391 198.89591797 313.14275391 197.76953125 314.30859375 C180.23734433 331.25343772 155.13306276 338.4595019 131.1171875 338.08227539 C106.73895422 337.13492015 86.34738721 328.34738721 69 311 C68.67 317.93 68.34 324.86 68 332 C45.56 332 23.12 332 0 332 C0 222.44 0 112.88 0 0 Z M78.6875 201.1875 C69.85527718 211.96027281 66.43853836 223.77016898 67.1953125 237.55859375 C68.84604156 250.29922079 73.53755807 260.52760011 83.35546875 269.04296875 C94.72868835 277.52315952 107.55266112 280.20323726 121.52734375 278.59375 C132.76728907 276.34843393 142.97758052 271.24470413 150 262 C158.00451881 249.59774161 160.62105429 236.56716338 157.75390625 221.9609375 C154.83301896 210.48926619 148.8745504 200.80730528 139 194 C119.06164675 182.40418874 94.98762146 184.08013443 78.6875 201.1875 Z " fill="#FEFFF2" transform="translate(848,617)"/>
<path d="M0 0 C0.6482373 0.19867676 1.29647461 0.39735352 1.96435547 0.60205078 C14.38087964 4.52537854 23.96983129 10.64152607 34 19 C34.33 13.72 34.66 8.44 35 3 C57.77 3 80.54 3 104 3 C104 68.34 104 133.68 104 201 C81.56 201 59.12 201 36 201 C35.67 194.07 35.34 187.14 35 180 C32.69 182.31 30.38 184.62 28 187 C10.21815695 201.89342184 -13.4588829 208.68926351 -36.45214844 206.79833984 C-61.36739534 204.0120872 -81.40056323 196.04599877 -99 178 C-100.23169922 176.78183594 -100.23169922 176.78183594 -101.48828125 175.5390625 C-121.99709543 154.21556313 -128.51655506 124.88784036 -128.21484375 96.19921875 C-127.61738419 71.98540725 -119.22530492 48.16979136 -103 30 C-102.27167969 29.14148438 -101.54335937 28.28296875 -100.79296875 27.3984375 C-96.7923491 22.74186039 -96.7923491 22.74186039 -95 21 C-94.34 21 -93.68 21 -93 21 C-93 20.34 -93 19.68 -93 19 C-90.95191475 17.31548018 -88.9155315 15.77106483 -86.75 14.25 C-86.11102783 13.80116455 -85.47205566 13.3523291 -84.8137207 12.88989258 C-60.94527919 -3.5568952 -27.8327957 -8.5465711 0 0 Z M-46.24609375 73.5546875 C-53.67733819 83.91539802 -56.48222721 96.79288061 -54.46484375 109.32421875 C-51.83469404 122.84864978 -46.63469342 132.41119675 -35.4375 140.9375 C-31.83557967 143.28370498 -28.11331807 144.78931589 -24 146 C-22.92685547 146.32677734 -22.92685547 146.32677734 -21.83203125 146.66015625 C-9.15838543 149.86571826 4.673921 147.90502341 15.87109375 141.30859375 C25.67679093 134.72267774 32.56112718 125.29408292 35.578125 113.796875 C37.80400544 99.04011207 36.43694107 84.91269375 27.375 72.625 C18.90197366 62.97780896 8.61703935 56.52615249 -4.33984375 55.625 C-21.4613322 54.93203476 -35.05269426 60.21305983 -46.24609375 73.5546875 Z " fill="#FEFFF2" transform="translate(317,748)"/>
<path d="M0 0 C22.77 0 45.54 0 69 0 C69 24.42 69 48.84 69 74 C82.86 74 96.72 74 111 74 C111 91.16 111 108.32 111 126 C97.14 126 83.28 126 69 126 C69.09111578 138.14861029 69.09111578 138.14861029 69.20898438 150.296875 C69.2630619 155.26038697 69.31417969 160.22379198 69.34643555 165.1875 C69.37267574 169.19477514 69.41321965 173.20168561 69.46318626 177.2087326 C69.47971634 178.7282834 69.49131604 180.24789707 69.49761391 181.76752472 C69.54359 191.85268101 69.69888847 202.10515797 74.75 211.125 C77.82959842 213.69133201 80.02308346 214.41324182 84 215 C89.56317862 214.43786697 94.06462834 212.58519468 99 210 C99.99 210 100.98 210 102 210 C104.28653579 217.32991873 106.56429457 224.66252251 108.8359375 231.99707031 C109.60995307 234.49249132 110.38598462 236.98728795 111.1640625 239.48144531 C112.28133754 243.06413595 113.39137157 246.64900075 114.5 250.234375 C114.84998047 251.35116638 115.19996094 252.46795776 115.56054688 253.61859131 C115.88087891 254.65936829 116.20121094 255.70014526 116.53125 256.77246094 C116.81548828 257.68735291 117.09972656 258.60224487 117.39257812 259.54486084 C118 262 118 262 118 266 C94.58457896 277.84591284 67.11770229 282.14553499 41.6875 274.25 C24.89055945 268.07364872 15.17787569 258.75906961 7.3125 242.8125 C2.00212294 230.61440616 -0.17416198 217.34080661 -0.11352539 204.10546875 C-0.11367142 203.2557399 -0.11381744 202.40601105 -0.1139679 201.53053284 C-0.11327672 198.74949502 -0.10552192 195.96852597 -0.09765625 193.1875 C-0.09578924 191.24837277 -0.09436667 189.30924506 -0.09336853 187.37011719 C-0.08956564 182.28699421 -0.07975454 177.20390018 -0.06866455 172.12078857 C-0.05840236 166.92558178 -0.05386064 161.73037027 -0.04882812 156.53515625 C-0.03813013 146.35675612 -0.02055154 136.17838501 0 126 C-9.57 126 -19.14 126 -29 126 C-29 108.84 -29 91.68 -29 74 C-19.43 74 -9.86 74 0 74 C0 49.58 0 25.16 0 0 Z " fill="#FEFFF2" transform="translate(62,677)"/>
<path d="M0 0 C22.77 0 45.54 0 69 0 C69 65.34 69 130.68 69 198 C46.23 198 23.46 198 0 198 C0 132.66 0 67.32 0 0 Z " fill="#FEFFF2" transform="translate(731,751)"/>
<path d="M0 0 C11.2379618 8.61985353 17.5467228 18.29479039 20.6875 32 C22.02490341 44.83907276 19.67171587 56.44458951 12 67 C11.48566406 67.70898438 10.97132812 68.41796875 10.44140625 69.1484375 C3.13482084 78.29481061 -6.8045331 83.12187217 -18 85.6875 C-31.15875453 87.0582036 -43.56213371 84.09247253 -54.375 76.28515625 C-64.2731979 68.10911103 -70.69176668 56.82068654 -72 44 C-72.96217301 30.97546292 -69.34077703 18.55022154 -60.890625 8.48828125 C-44.82716619 -8.26756802 -20.04642352 -12.77585499 0 0 Z " fill="#00413D" transform="translate(1167,851)"/>
<path d="M0 0 C5.56959429 4.85926922 10.69106958 9.57247197 13.6328125 16.4765625 C13.95636719 17.22035156 14.27992188 17.96414063 14.61328125 18.73046875 C17.82425376 27.15738721 18.04674347 38.92627315 14.8203125 47.4140625 C14.0794618 48.93980047 13.28737415 50.44176216 12.4453125 51.9140625 C11.79175781 53.08001953 11.79175781 53.08001953 11.125 54.26953125 C5.04017673 64.19477577 -3.62580924 70.63127485 -14.96875 73.53125 C-26.46971128 75.23380922 -36.90177106 74.19374637 -46.6796875 67.7890625 C-56.36676849 60.50474257 -62.5923708 52.131787 -65.1484375 40.125 C-66.63514533 28.40028146 -63.9453189 17.59533047 -57.17578125 7.94921875 C-50.11712813 -0.84043922 -41.22202598 -5.59904709 -30.2109375 -7.734375 C-19.4080164 -8.77311741 -8.47232374 -6.91776893 0 0 Z " fill="#FEFFF2" transform="translate(790.5546875,636.0859375)"/>
</svg>
